<?xml version="1.0" encoding="UTF-8" standalone="no"?>
<!DOCTYPE svg PUBLIC "-//W3C//DTD SVG 1.1//EN" "http://www.w3.org/Graphics/SVG/1.1/DTD/svg11.dtd">
<svg width="100%" height="100%" viewBox="0 0 1841 1009" version="1.1" xmlns="http://www.w3.org/2000/svg" xmlns:xlink="http://www.w3.org/1999/xlink" xml:space="preserve" xmlns:serif="http://www.serif.com/" style="fill-rule:evenodd;clip-rule:evenodd;">
    <g transform="matrix(0.88063,0,0,0.882028,132.071,421.731)">
        <g id="Arthur_Schnitzler">
            <g>
                <g transform="matrix(217.32,0,0,217.32,0,0)">
                    <path d="M0.013,-0L0.123,-0C0.143,-0 0.154,-0.012 0.159,-0.024L0.195,-0.104L0.467,-0.104L0.503,-0.025C0.512,-0.006 0.52,-0 0.538,-0L0.649,-0C0.664,-0 0.672,-0.013 0.666,-0.026L0.353,-0.699C0.35,-0.705 0.343,-0.71 0.336,-0.71L0.326,-0.71C0.319,-0.71 0.312,-0.705 0.309,-0.699L-0.004,-0.026C-0.01,-0.013 -0.002,-0 0.013,-0ZM0.255,-0.24L0.33,-0.405L0.331,-0.405L0.407,-0.24L0.255,-0.24Z" style="fill-rule:nonzero;"/>
                </g>
                <g transform="matrix(217.32,0,0,217.32,143.605,0)">
                    <path d="M0.086,-0.019C0.086,-0.009 0.094,-0 0.105,-0L0.224,-0C0.234,-0 0.243,-0.009 0.243,-0.019L0.243,-0.274L0.312,-0.274L0.445,-0.009C0.447,-0.005 0.453,-0 0.461,-0L0.594,-0C0.611,-0 0.618,-0.016 0.611,-0.029L0.474,-0.283C0.561,-0.318 0.622,-0.392 0.622,-0.484C0.622,-0.603 0.524,-0.7 0.404,-0.7L0.105,-0.7C0.094,-0.7 0.086,-0.691 0.086,-0.681L0.086,-0.019ZM0.243,-0.401L0.243,-0.557L0.391,-0.557C0.432,-0.557 0.467,-0.523 0.467,-0.481C0.467,-0.439 0.432,-0.401 0.391,-0.401L0.243,-0.401Z" style="fill-rule:nonzero;"/>
                </g>
                <g transform="matrix(217.32,0,0,217.32,288.949,0)">
                    <path d="M0.176,-0.019C0.176,-0.009 0.185,-0 0.195,-0L0.315,-0C0.325,-0 0.334,-0.009 0.334,-0.019L0.334,-0.553L0.477,-0.553C0.488,-0.553 0.496,-0.562 0.496,-0.572L0.496,-0.681C0.496,-0.691 0.488,-0.7 0.477,-0.7L0.033,-0.7C0.022,-0.7 0.014,-0.691 0.014,-0.681L0.014,-0.572C0.014,-0.562 0.022,-0.553 0.033,-0.553L0.176,-0.553L0.176,-0.019Z" style="fill-rule:nonzero;"/>
                </g>
                <g transform="matrix(217.32,0,0,217.32,399.521,0)">
                    <path d="M0.086,-0.019C0.086,-0.009 0.095,-0 0.105,-0L0.224,-0C0.235,-0 0.243,-0.009 0.243,-0.019L0.243,-0.282L0.529,-0.282L0.529,-0.019C0.529,-0.009 0.537,-0 0.548,-0L0.667,-0C0.677,-0 0.686,-0.009 0.686,-0.019L0.686,-0.681C0.686,-0.691 0.677,-0.7 0.667,-0.7L0.548,-0.7C0.537,-0.7 0.529,-0.691 0.529,-0.681L0.529,-0.429L0.243,-0.429L0.243,-0.681C0.243,-0.691 0.235,-0.7 0.224,-0.7L0.105,-0.7C0.095,-0.7 0.086,-0.691 0.086,-0.681L0.086,-0.019Z" style="fill-rule:nonzero;"/>
                </g>
                <g transform="matrix(217.32,0,0,217.32,567.031,0)">
                    <path d="M0.076,-0.268C0.076,-0.116 0.203,0.01 0.36,0.01C0.518,0.01 0.646,-0.116 0.646,-0.268L0.646,-0.681C0.646,-0.691 0.637,-0.7 0.627,-0.7L0.504,-0.7C0.493,-0.7 0.485,-0.691 0.485,-0.681L0.485,-0.276C0.485,-0.206 0.432,-0.15 0.36,-0.15C0.289,-0.15 0.237,-0.206 0.237,-0.276L0.237,-0.681C0.237,-0.691 0.229,-0.7 0.218,-0.7L0.095,-0.7C0.085,-0.7 0.076,-0.691 0.076,-0.681L0.076,-0.268Z" style="fill-rule:nonzero;"/>
                </g>
                <g transform="matrix(217.32,0,0,217.32,723.458,0)">
                    <path d="M0.086,-0.019C0.086,-0.009 0.094,-0 0.105,-0L0.224,-0C0.234,-0 0.243,-0.009 0.243,-0.019L0.243,-0.274L0.312,-0.274L0.445,-0.009C0.447,-0.005 0.453,-0 0.461,-0L0.594,-0C0.611,-0 0.618,-0.016 0.611,-0.029L0.474,-0.283C0.561,-0.318 0.622,-0.392 0.622,-0.484C0.622,-0.603 0.524,-0.7 0.404,-0.7L0.105,-0.7C0.094,-0.7 0.086,-0.691 0.086,-0.681L0.086,-0.019ZM0.243,-0.401L0.243,-0.557L0.391,-0.557C0.432,-0.557 0.467,-0.523 0.467,-0.481C0.467,-0.439 0.432,-0.401 0.391,-0.401L0.243,-0.401Z" style="fill-rule:nonzero;"/>
                </g>
                <g transform="matrix(1,0,0,1,0,193.78)">
                    <g transform="matrix(217.32,0,0,217.32,0,0)">
                        <path d="M0.051,-0.067C0.074,-0.044 0.146,0.01 0.276,0.01C0.423,0.01 0.512,-0.094 0.512,-0.197C0.512,-0.333 0.388,-0.394 0.31,-0.425C0.231,-0.457 0.201,-0.485 0.201,-0.522C0.201,-0.549 0.228,-0.573 0.264,-0.573C0.325,-0.573 0.398,-0.518 0.407,-0.513C0.416,-0.506 0.434,-0.515 0.441,-0.526L0.492,-0.603C0.496,-0.61 0.498,-0.628 0.486,-0.635C0.456,-0.657 0.376,-0.71 0.272,-0.71C0.118,-0.71 0.041,-0.61 0.041,-0.511C0.041,-0.391 0.149,-0.324 0.235,-0.29C0.303,-0.263 0.338,-0.231 0.338,-0.189C0.338,-0.154 0.309,-0.129 0.269,-0.129C0.203,-0.129 0.131,-0.182 0.127,-0.184C0.12,-0.189 0.101,-0.191 0.093,-0.178L0.046,-0.095C0.038,-0.081 0.041,-0.077 0.051,-0.067Z" style="fill-rule:nonzero;"/>
                    </g>
                    <g transform="matrix(217.32,0,0,217.32,118.831,0)">
                        <path d="M0.035,-0.349C0.035,-0.149 0.196,0.01 0.396,0.01C0.485,0.01 0.571,-0.021 0.639,-0.087C0.646,-0.094 0.647,-0.107 0.64,-0.114L0.562,-0.197C0.556,-0.204 0.543,-0.204 0.536,-0.198C0.5,-0.167 0.449,-0.15 0.402,-0.15C0.289,-0.15 0.205,-0.242 0.205,-0.353C0.205,-0.465 0.288,-0.559 0.401,-0.559C0.45,-0.559 0.499,-0.541 0.536,-0.508C0.543,-0.501 0.554,-0.501 0.561,-0.508L0.639,-0.589C0.647,-0.597 0.647,-0.609 0.638,-0.617C0.57,-0.679 0.496,-0.71 0.396,-0.71C0.196,-0.71 0.035,-0.549 0.035,-0.349Z" style="fill-rule:nonzero;"/>
                    </g>
                    <g transform="matrix(217.32,0,0,217.32,264.826,0)">
                        <path d="M0.086,-0.019C0.086,-0.009 0.095,-0 0.105,-0L0.224,-0C0.235,-0 0.243,-0.009 0.243,-0.019L0.243,-0.282L0.529,-0.282L0.529,-0.019C0.529,-0.009 0.537,-0 0.548,-0L0.667,-0C0.677,-0 0.686,-0.009 0.686,-0.019L0.686,-0.681C0.686,-0.691 0.677,-0.7 0.667,-0.7L0.548,-0.7C0.537,-0.7 0.529,-0.691 0.529,-0.681L0.529,-0.429L0.243,-0.429L0.243,-0.681C0.243,-0.691 0.235,-0.7 0.224,-0.7L0.105,-0.7C0.095,-0.7 0.086,-0.691 0.086,-0.681L0.086,-0.019Z" style="fill-rule:nonzero;"/>
                    </g>
                    <g transform="matrix(217.32,0,0,217.32,432.336,0)">
                        <path d="M0.086,-0.019C0.086,-0.009 0.095,-0 0.105,-0L0.224,-0C0.235,-0 0.243,-0.009 0.243,-0.019L0.243,-0.392L0.244,-0.392L0.639,0.005C0.641,0.007 0.649,0.01 0.652,0.01L0.668,0.01C0.678,0.01 0.687,0.002 0.687,-0.008L0.687,-0.681C0.687,-0.691 0.678,-0.7 0.668,-0.7L0.548,-0.7C0.537,-0.7 0.529,-0.691 0.529,-0.681L0.529,-0.326L0.528,-0.326L0.129,-0.71L0.104,-0.71C0.094,-0.71 0.085,-0.702 0.085,-0.692L0.086,-0.019Z" style="fill-rule:nonzero;"/>
                    </g>
                    <g transform="matrix(217.32,0,0,217.32,600.064,0)">
                        <path d="M0.086,-0.019C0.086,-0.009 0.095,-0 0.105,-0L0.225,-0C0.235,-0 0.244,-0.009 0.244,-0.019L0.244,-0.681C0.244,-0.691 0.235,-0.7 0.225,-0.7L0.105,-0.7C0.095,-0.7 0.086,-0.691 0.086,-0.681L0.086,-0.019Z" style="fill-rule:nonzero;"/>
                    </g>
                    <g transform="matrix(217.32,0,0,217.32,671.519,0)">
                        <path d="M0.176,-0.019C0.176,-0.009 0.185,-0 0.195,-0L0.315,-0C0.325,-0 0.334,-0.009 0.334,-0.019L0.334,-0.553L0.477,-0.553C0.488,-0.553 0.496,-0.562 0.496,-0.572L0.496,-0.681C0.496,-0.691 0.488,-0.7 0.477,-0.7L0.033,-0.7C0.022,-0.7 0.014,-0.691 0.014,-0.681L0.014,-0.572C0.014,-0.562 0.022,-0.553 0.033,-0.553L0.176,-0.553L0.176,-0.019Z" style="fill-rule:nonzero;"/>
                    </g>
                    <g transform="matrix(217.32,0,0,217.32,782.091,0)">
                        <path d="M0.023,-0.019C0.023,-0.009 0.032,-0 0.042,-0L0.476,-0C0.487,-0 0.495,-0.009 0.495,-0.019L0.495,-0.128C0.495,-0.138 0.487,-0.147 0.476,-0.147L0.258,-0.147L0.258,-0.149L0.515,-0.668L0.515,-0.681C0.515,-0.691 0.506,-0.7 0.496,-0.7L0.071,-0.7C0.061,-0.7 0.052,-0.691 0.052,-0.681L0.052,-0.572C0.052,-0.562 0.061,-0.553 0.071,-0.553L0.289,-0.553L0.289,-0.551L0.023,-0.037L0.023,-0.019Z" style="fill-rule:nonzero;"/>
                    </g>
                    <g transform="matrix(217.32,0,0,217.32,899.618,0)">
                        <path d="M0.086,-0.019C0.086,-0.009 0.094,-0 0.105,-0L0.481,-0C0.492,-0 0.5,-0.009 0.5,-0.019L0.5,-0.128C0.5,-0.138 0.492,-0.147 0.481,-0.147L0.243,-0.147L0.243,-0.681C0.243,-0.691 0.234,-0.7 0.224,-0.7L0.105,-0.7C0.094,-0.7 0.086,-0.691 0.086,-0.681L0.086,-0.019Z" style="fill-rule:nonzero;"/>
                    </g>
                    <g transform="matrix(217.32,0,0,217.32,1010.41,0)">
                        <path d="M0.086,-0.019C0.086,-0.009 0.094,-0 0.105,-0L0.519,-0C0.53,-0 0.538,-0.009 0.538,-0.019L0.538,-0.128C0.538,-0.138 0.53,-0.147 0.519,-0.147L0.242,-0.147L0.242,-0.282L0.47,-0.282C0.48,-0.282 0.489,-0.29 0.489,-0.301L0.489,-0.41C0.489,-0.42 0.48,-0.429 0.47,-0.429L0.242,-0.429L0.242,-0.553L0.519,-0.553C0.53,-0.553 0.538,-0.562 0.538,-0.572L0.538,-0.681C0.538,-0.691 0.53,-0.7 0.519,-0.7L0.105,-0.7C0.094,-0.7 0.086,-0.691 0.086,-0.681L0.086,-0.019Z" style="fill-rule:nonzero;"/>
                    </g>
                    <g transform="matrix(217.32,0,0,217.32,1137.5,0)">
                        <path d="M0.086,-0.019C0.086,-0.009 0.094,-0 0.105,-0L0.224,-0C0.234,-0 0.243,-0.009 0.243,-0.019L0.243,-0.274L0.312,-0.274L0.445,-0.009C0.447,-0.005 0.453,-0 0.461,-0L0.594,-0C0.611,-0 0.618,-0.016 0.611,-0.029L0.474,-0.283C0.561,-0.318 0.622,-0.392 0.622,-0.484C0.622,-0.603 0.524,-0.7 0.404,-0.7L0.105,-0.7C0.094,-0.7 0.086,-0.691 0.086,-0.681L0.086,-0.019ZM0.243,-0.401L0.243,-0.557L0.391,-0.557C0.432,-0.557 0.467,-0.523 0.467,-0.481C0.467,-0.439 0.432,-0.401 0.391,-0.401L0.243,-0.401Z" style="fill-rule:nonzero;"/>
                    </g>
                </g>
            </g>
        </g>
    </g>
    <g id="Profil">
        <g transform="matrix(1,0,0,1,-198.58,-107.45)">
            <path d="M1780.85,130.28L1781.96,130.84L1780.85,130.28Z" style="fill-rule:nonzero;stroke:rgb(35,31,32);stroke-width:1px;"/>
        </g>
        <g transform="matrix(1,0,0,1,-198.58,-107.45)">
            <path d="M1754.65,132.51L1755.21,133.63L1755.76,132.51L1754.65,132.51Z" style="fill:rgb(35,31,32);fill-rule:nonzero;stroke:white;stroke-width:1px;"/>
        </g>
        <g transform="matrix(1,0,0,1,-198.58,-107.45)">
            <path d="M1776.39,134.19C1777.83,135.78 1777.11,135.06 1778.62,134.19L1776.39,134.19Z" style="fill:rgb(35,31,32);fill-rule:nonzero;stroke:white;stroke-width:1px;"/>
        </g>
        <g transform="matrix(1,0,0,1,-198.58,-107.45)">
            <path d="M1734.58,137.53L1734.02,138.64L1735.14,138.64L1734.58,137.53Z" style="fill:rgb(35,31,32);fill-rule:nonzero;stroke:white;stroke-width:1px;"/>
        </g>
        <g transform="matrix(1,0,0,1,-198.58,-107.45)">
            <path d="M1749.08,140.87C1749.85,141.95 1749.13,141.21 1750.19,141.99L1749.08,140.87Z" style="fill:rgb(35,31,32);fill-rule:nonzero;stroke:white;stroke-width:1px;"/>
        </g>
        <g transform="matrix(1,0,0,1,-198.58,-107.45)">
            <path d="M1721.94,153.44L1721.94,155.67L1723.61,155.67L1723.05,153.44L1721.94,153.44Z" style="fill-rule:nonzero;"/>
        </g>
        <g transform="matrix(1,0,0,1,-198.58,-107.45)">
            <path d="M1715.25,171.83L1715.25,173C1715.79,172 1715.76,172.82 1715.25,171.83Z" style="fill:rgb(35,31,32);fill-rule:nonzero;stroke:white;stroke-width:1px;"/>
        </g>
        <g transform="matrix(1,0,0,1,-198.58,-107.45)">
            <path d="M1828.41,184.1L1828.41,185.21C1829,184.24 1828.92,185.09 1828.41,184.1Z" style="fill:rgb(35,31,32);fill-rule:nonzero;stroke:white;stroke-width:1px;"/>
        </g>
        <g transform="matrix(1,0,0,1,-198.58,-107.45)">
            <path d="M1714.69,193.57L1715.25,194.69L1715.81,193.57L1714.69,193.57Z" style="fill:rgb(35,31,32);fill-rule:nonzero;stroke:white;stroke-width:1px;"/>
        </g>
        <g transform="matrix(1,0,0,1,-198.58,-107.45)">
            <path d="M1711.9,198.59C1712.68,199.66 1711.96,198.92 1713.02,199.7L1711.9,198.59Z" style="fill:rgb(35,31,32);fill-rule:nonzero;stroke:white;stroke-width:1px;"/>
        </g>
        <g transform="matrix(1,0,0,1,-198.58,-107.45)">
            <path d="M1707.44,210.85L1708,212L1708.56,210.88L1707.44,210.85Z" style="fill:rgb(35,31,32);fill-rule:nonzero;stroke:white;stroke-width:1px;"/>
        </g>
        <g transform="matrix(1,0,0,1,-198.58,-107.45)">
            <path d="M1806.11,210.85L1807.23,211.41L1806.11,210.85Z" style="fill:rgb(35,31,32);fill-rule:nonzero;stroke:white;stroke-width:1px;"/>
        </g>
        <g transform="matrix(1,0,0,1,-198.58,-107.45)">
            <path d="M1818.38,227L1819.49,227.56L1818.38,227Z" style="fill:rgb(35,31,32);fill-rule:nonzero;stroke:white;stroke-width:1px;"/>
        </g>
        <g transform="matrix(1,0,0,1,-198.58,-107.45)">
            <path d="M1713.58,228.13L1713.02,232.59C1714.52,231.7 1713.79,232.41 1714.69,230.92C1714.69,228.83 1715.91,229.46 1713.58,228.13Z" style="fill-rule:nonzero;"/>
        </g>
        <g transform="matrix(1,0,0,1,-198.58,-107.45)">
            <path d="M1716.92,243.74L1716.36,244.86C1718.05,244.16 1717.03,244.86 1718.04,243.74L1716.92,243.74Z" style="fill:rgb(35,31,32);fill-rule:nonzero;stroke:white;stroke-width:1px;"/>
        </g>
        <g transform="matrix(1,0,0,1,-198.58,-107.45)">
            <path d="M1718.59,244.3L1719.71,244.86L1718.59,244.3Z" style="fill:rgb(35,31,32);fill-rule:nonzero;stroke:white;stroke-width:1px;"/>
        </g>
        <g transform="matrix(1,0,0,1,-198.58,-107.45)">
            <path d="M1737,248.2L1738.11,248.76L1737,248.2Z" style="fill:rgb(35,31,32);fill-rule:nonzero;stroke:white;stroke-width:1px;"/>
        </g>
        <g transform="matrix(1,0,0,1,-198.58,-107.45)">
            <path d="M1856.28,249.88C1857.06,250.95 1856.34,250.21 1857.4,250.99L1856.28,249.88Z" style="fill:rgb(35,31,32);fill-rule:nonzero;stroke:white;stroke-width:1px;"/>
        </g>
        <g transform="matrix(1,0,0,1,-198.58,-107.45)">
            <path d="M1707.44,261.58L1708,266L1709.12,266.56C1709.14,263.51 1709.14,262.89 1707.44,261.58Z" style="fill-rule:nonzero;"/>
        </g>
        <g transform="matrix(1,0,0,1,-198.58,-107.45)">
            <path d="M1777.68,262.7C1778.68,264.08 1778.02,263.35 1779.36,262.7L1777.68,262.7Z" style="fill:rgb(35,31,32);fill-rule:nonzero;stroke:white;stroke-width:1px;"/>
        </g>
        <g transform="matrix(1,0,0,1,-198.58,-107.45)">
            <path d="M1875.8,280L1876.35,281.11C1876.12,280.58 1876.8,280.72 1875.8,280Z" style="fill:rgb(35,31,32);fill-rule:nonzero;stroke:white;stroke-width:1px;"/>
        </g>
        <g transform="matrix(1,0,0,1,-198.58,-107.45)">
            <path d="M1892,302.28L1888.1,304.51L1888.66,307.29L1891.44,307.29C1892.31,304.94 1892.79,305.43 1894.23,303.95L1893.12,303.95L1892,302.28Z" style="fill-rule:nonzero;"/>
        </g>
        <g transform="matrix(1,0,0,1,-198.58,-107.45)">
            <path d="M1730.86,309L1730.3,311.23C1731.37,310.38 1731.3,310.23 1731.97,309L1730.86,309Z" style="fill-rule:nonzero;"/>
        </g>
        <g transform="matrix(1,0,0,1,-198.58,-107.45)">
            <path d="M1701.87,375.86C1702.87,377 1701.87,376.25 1703.54,376.97L1701.87,375.86Z" style="fill:rgb(35,31,32);fill-rule:nonzero;stroke:white;stroke-width:1px;"/>
        </g>
        <g transform="matrix(1,0,0,1,-198.58,-107.45)">
            <path d="M1704.1,393.7L1703.54,394.81L1704.66,394.81L1704.1,393.7Z" style="fill:rgb(35,31,32);fill-rule:nonzero;stroke:white;stroke-width:1px;"/>
        </g>
        <g transform="matrix(1,0,0,1,-198.58,-107.45)">
            <path d="M1682.36,422.13L1681.8,423.24L1682.92,423.24L1682.36,422.13Z" style="fill:rgb(35,31,32);fill-rule:nonzero;stroke:white;stroke-width:1px;"/>
        </g>
        <g transform="matrix(1,0,0,1,-198.58,-107.45)">
            <path d="M1524.6,541.42L1525.16,542.54L1525.72,541.42L1524.6,541.42Z" style="fill:rgb(35,31,32);fill-rule:nonzero;stroke:white;stroke-width:1px;"/>
        </g>
        <g transform="matrix(1,0,0,1,-198.58,-107.45)">
            <path d="M1536.86,544.77L1537.98,545.32L1536.86,544.77Z" style="fill:rgb(35,31,32);fill-rule:nonzero;stroke:white;stroke-width:1px;"/>
        </g>
        <g transform="matrix(1,0,0,1,-198.58,-107.45)">
            <path d="M1539.65,547.55L1539.09,548.67C1540.13,548 1539.4,548.17 1539.65,547.55Z" style="fill:rgb(35,31,32);fill-rule:nonzero;stroke:white;stroke-width:1px;"/>
        </g>
        <g transform="matrix(1,0,0,1,-198.58,-107.45)">
            <path d="M1522.37,557.59L1522.37,558.7C1522.92,557.73 1522.88,558.58 1522.37,557.59Z" style="fill:rgb(35,31,32);fill-rule:nonzero;stroke:white;stroke-width:1px;"/>
        </g>
        <g transform="matrix(1,0,0,1,-198.58,-107.45)">
            <path d="M1533.52,561.49L1534.64,562.05L1533.52,561.49Z" style="fill:rgb(35,31,32);fill-rule:nonzero;stroke:white;stroke-width:1px;"/>
        </g>
        <g transform="matrix(1,0,0,1,-198.58,-107.45)">
            <path d="M1536.31,587.69L1535.75,588.81C1536.79,588.11 1536.06,588.31 1536.31,587.69Z" style="fill:rgb(35,31,32);fill-rule:nonzero;stroke:white;stroke-width:1px;"/>
        </g>
        <g transform="matrix(1,0,0,1,-198.58,-107.45)">
            <path d="M1545.23,600L1545.78,601.12L1546.34,600L1545.23,600Z" style="fill:rgb(35,31,32);fill-rule:nonzero;stroke:white;stroke-width:1px;"/>
        </g>
        <g transform="matrix(1,0,0,1,-198.58,-107.45)">
            <path d="M1554.15,659.6C1554.92,660.67 1554.15,659.94 1555.26,660.72L1554.15,659.6Z" style="fill:rgb(35,31,32);fill-rule:nonzero;stroke:white;stroke-width:1px;"/>
        </g>
        <g transform="matrix(1,0,0,1,-198.58,-107.45)">
            <path d="M1557.49,704.2L1557.49,705.87L1558.05,704.2L1557.49,704.2Z" style="fill:rgb(35,31,32);fill-rule:nonzero;stroke:white;stroke-width:1px;"/>
        </g>
        <g transform="matrix(1,0,0,1,-198.58,-107.45)">
            <path d="M1562,733.74L1562.56,735.42C1563.7,734.42 1562.95,735.42 1563.67,733.74L1562,733.74Z" style="fill:rgb(35,31,32);fill-rule:nonzero;stroke:white;stroke-width:1px;"/>
        </g>
        <g transform="matrix(1,0,0,1,-198.58,-107.45)">
            <path d="M1555.82,757.16L1555.82,758.83L1556.93,758.83L1555.82,757.16Z" style="fill:rgb(35,31,32);fill-rule:nonzero;stroke:white;stroke-width:1px;"/>
        </g>
        <g transform="matrix(1,0,0,1,-198.58,-107.45)">
            <path d="M1561.39,780.57C1562.33,781.95 1561.73,781.22 1563.07,780.57L1561.39,780.57Z" style="fill:rgb(35,31,32);fill-rule:nonzero;stroke:white;stroke-width:1px;"/>
        </g>
        <g transform="matrix(1,0,0,1,-198.58,-107.45)">
            <path d="M1556.93,783.36L1558.05,783.91L1556.93,783.36Z" style="fill:rgb(35,31,32);fill-rule:nonzero;stroke:white;stroke-width:1px;"/>
        </g>
        <g transform="matrix(1,0,0,1,-198.58,-107.45)">
            <path d="M1546.34,796.18L1547.46,797.85C1546.75,796.16 1547.47,797.18 1546.34,796.18Z" style="fill:rgb(35,31,32);fill-rule:nonzero;stroke:white;stroke-width:1px;"/>
        </g>
        <g transform="matrix(1,0,0,1,-198.58,-107.45)">
            <path d="M1560.84,802.87L1560.28,803.98L1561.95,802.87L1560.84,802.87Z" style="fill:rgb(35,31,32);fill-rule:nonzero;stroke:white;stroke-width:1px;"/>
        </g>
        <g transform="matrix(1,0,0,1,-198.58,-107.45)">
            <path d="M1558.61,804L1559.72,805.12L1558.61,804Z" style="fill:rgb(35,31,32);fill-rule:nonzero;stroke:white;stroke-width:1px;"/>
        </g>
        <g transform="matrix(1,0,0,1,-198.58,-107.45)">
            <path d="M1559.72,807.33C1560.23,809.33 1559.72,808.47 1560.84,809.56L1559.72,807.33Z" style="fill:rgb(35,31,32);fill-rule:nonzero;stroke:white;stroke-width:1px;"/>
        </g>
        <g transform="matrix(1,0,0,1,-198.58,-107.45)">
            <path d="M1556.38,817.92L1557.49,820.15L1556.38,817.92Z" style="fill:rgb(35,31,32);fill-rule:nonzero;stroke:white;stroke-width:1px;"/>
        </g>
        <g transform="matrix(1,0,0,1,-198.58,-107.45)">
            <path d="M1549.69,820.71L1550.8,822.94L1551.36,822.38L1551.36,821.82L1549.69,820.71Z" style="fill:rgb(35,31,32);fill-rule:nonzero;stroke:white;stroke-width:1px;"/>
        </g>
        <g transform="matrix(1,0,0,1,-198.58,-107.45)">
            <path d="M1574.21,824.61L1575.33,825.16L1574.21,824.61Z" style="fill:rgb(35,31,32);fill-rule:nonzero;stroke:white;stroke-width:1px;"/>
        </g>
        <g transform="matrix(1,0,0,1,-198.58,-107.45)">
            <path d="M1566.41,836.87L1567.52,837.43L1566.41,836.87Z" style="fill:rgb(35,31,32);fill-rule:nonzero;stroke:white;stroke-width:1px;"/>
        </g>
        <g transform="matrix(1,0,0,1,-198.58,-107.45)">
            <path d="M1567,840.22L1567.55,841.33C1567.29,840.81 1568,841 1567,840.22Z" style="fill:rgb(35,31,32);fill-rule:nonzero;stroke:white;stroke-width:1px;"/>
        </g>
        <g transform="matrix(1,0,0,1,-198.58,-107.45)">
            <path d="M1556.38,841.89L1557.49,842.45L1556.38,841.89Z" style="fill:rgb(35,31,32);fill-rule:nonzero;stroke:white;stroke-width:1px;"/>
        </g>
        <g transform="matrix(1,0,0,1,-198.58,-107.45)">
            <path d="M1569.2,843.56L1570.31,844.12L1569.2,843.56Z" style="fill:rgb(35,31,32);fill-rule:nonzero;stroke:white;stroke-width:1px;"/>
        </g>
        <g transform="matrix(1,0,0,1,-198.58,-107.45)">
            <path d="M1559.72,858.05L1560.84,858.61L1559.72,858.05Z" style="fill:rgb(35,31,32);fill-rule:nonzero;stroke:white;stroke-width:1px;"/>
        </g>
        <g transform="matrix(1,0,0,1,-198.58,-107.45)">
            <path d="M1568.64,868.09C1569.64,869.23 1568.64,868.48 1570.31,869.2C1569.31,868.07 1570.3,868.81 1568.64,868.09Z" style="fill:rgb(35,31,32);fill-rule:nonzero;stroke:white;stroke-width:1px;"/>
        </g>
        <g transform="matrix(1,0,0,1,-198.58,-107.45)">
            <path d="M1553,881.47L1553,882.58C1553.58,881.61 1553.54,882.46 1553,881.47Z" style="fill:rgb(35,31,32);fill-rule:nonzero;stroke:white;stroke-width:1px;"/>
        </g>
        <g transform="matrix(1,0,0,1,-198.58,-107.45)">
            <path d="M1559.16,895.4L1558.61,896.52L1560.28,896.52L1559.72,895.4L1559.16,895.4Z" style="fill:rgb(35,31,32);fill-rule:nonzero;stroke:white;stroke-width:1px;"/>
        </g>
        <g transform="matrix(1,0,0,1,-198.58,-107.45)">
            <path d="M1563.07,904.88L1563.07,906.55L1564.18,906.55L1563.07,904.88Z" style="fill:rgb(35,31,32);fill-rule:nonzero;stroke:white;stroke-width:1px;"/>
        </g>
        <g transform="matrix(1,0,0,1,-198.58,-107.45)">
            <path d="M1561.39,918.26L1561.39,919.37C1561.94,918.4 1561.9,919.25 1561.39,918.26Z" style="fill:rgb(35,31,32);fill-rule:nonzero;stroke:white;stroke-width:1px;"/>
        </g>
        <g transform="matrix(1,0,0,1,-198.58,-107.45)">
            <path d="M1558.61,941.67C1560.01,942.58 1558.7,942.22 1560.28,941.67L1558.61,941.67Z" style="fill:rgb(35,31,32);fill-rule:nonzero;stroke:white;stroke-width:1px;"/>
        </g>
        <g transform="matrix(1,0,0,1,-198.58,-107.45)">
            <path d="M1562,955.61L1563.12,956.17L1562,955.61Z" style="fill:rgb(35,31,32);fill-rule:nonzero;stroke:white;stroke-width:1px;"/>
        </g>
        <g transform="matrix(1,0,0,1,-198.58,-107.45)">
            <path d="M1558.61,979.58L1558.61,980.69C1559.15,979.72 1559.11,980.57 1558.61,979.58Z" style="fill:rgb(35,31,32);fill-rule:nonzero;stroke:white;stroke-width:1px;"/>
        </g>
        <g transform="matrix(1,0,0,1,-198.58,-107.45)">
            <path d="M1545.23,1029.19C1546,1030.26 1545.23,1029.53 1546.34,1030.31L1545.23,1029.19Z" style="fill:rgb(35,31,32);fill-rule:nonzero;stroke:white;stroke-width:1px;"/>
        </g>
        <g transform="matrix(1,0,0,1,-198.58,-107.45)">
            <path d="M1546.9,1029.19L1548.57,1030.31C1547.57,1029.17 1548.56,1029.91 1546.9,1029.19Z" style="fill:rgb(35,31,32);fill-rule:nonzero;stroke:white;stroke-width:1px;"/>
        </g>
        <g transform="matrix(0.88063,0,0,0.882028,130.927,59.4469)">
            <g transform="matrix(1,0,0,1,-198.58,-107.45)">
                <path d="M1988.4,795.72C1990.4,792.11 1993.25,781.55 1990.63,775.65C1988.63,771.42 1975.3,767.88 1972.23,767.85L1972.23,759.48C1977.23,762.12 1981.17,765.79 1987.84,766.73L1988.96,766.17C1989.14,765.06 1989.33,763.94 1989.52,762.83C1985.09,759.95 1975.79,753.46 1971.68,756.14L1968.89,750.56C1964.56,748.07 1961.97,750.56 1955.51,749.45C1938.51,746.55 1921.24,743.98 1905.9,741.65C1906.64,738.11 1907.38,734.577 1908.13,731.05C1907.01,722.883 1905.89,714.71 1904.78,706.53L1904.78,705.41C1906.89,701.41 1911.16,700.07 1909.78,694.26C1908.4,688.45 1900.78,678.07 1903.09,669.73C1904.19,665.73 1907.33,665.91 1907.55,659.73L1889.71,660.84L1888.6,659.17C1908.18,656.81 1926.15,658.56 1944.34,654.71L1945.46,653.6C1944.55,640.45 1939.66,630.05 1937.09,619.6C1931.77,597.89 1933.7,576.54 1926.5,554.94C1920.15,535.86 1911.95,513.86 1908.11,492.5C1907.92,482.84 1907.73,473.173 1907.55,463.5C1906.66,458.5 1903.65,451.11 1905.32,444.5C1906.99,437.89 1911.02,430.63 1909.78,421.09C1908.62,412.09 1900.42,398.48 1903.09,386.53L1907.55,376.53C1909.67,365.97 1906.79,356.42 1905.32,347.53C1904.58,338.423 1903.84,329.317 1903.09,320.21C1899.09,300.21 1890.87,285.46 1880.79,271.71C1875.79,264.92 1867.27,262.43 1861.28,256.71C1855.99,251.62 1854.84,245.45 1845.12,244.45C1843.2,241.23 1844.04,240.98 1845.12,237.2C1841.29,231.73 1836.59,223.14 1830.06,220.48C1815.72,227.55 1800.58,237.83 1789.93,248.91L1791.04,248.91C1785.5,252.3 1769.04,269.09 1762.61,269.53C1764.85,252.36 1799.38,227.53 1813.34,219.92C1817.91,217.42 1825.97,218.11 1830.62,214.92C1836.7,210.74 1832.5,205.78 1835.62,199.32C1836.53,197.44 1839.93,195.86 1840.62,193.18C1842.02,187.88 1838.49,184.18 1840.06,178.69L1837.27,178.13L1840.06,177.57C1838.94,168.57 1836.68,146.67 1832.81,139.67C1830.81,136.04 1820.25,131.89 1823.89,126.85L1825.01,125.73C1823.2,123.73 1822.42,121.67 1820.01,120.16L1811.65,122.94C1810.52,118.56 1809.29,115.83 1803.84,114.58C1804.59,113.47 1805.33,112.35 1806.07,111.24L1805.52,110.12C1796.93,108.96 1789.97,110.9 1782.66,111.24L1775.41,107.89C1770.16,106.28 1762.08,110.34 1758.13,111.8L1757.58,111.8C1758.86,110.02 1759.58,110.44 1760.36,107.89C1748.54,107.89 1746.13,116.47 1740.29,122.39C1737.4,120.39 1736.85,120.39 1731.93,120.71C1729.37,124.11 1724.79,131.31 1724.13,135.77L1720.78,136.32C1721.22,139.165 1722.37,141.852 1724.13,144.13C1721.18,154.866 1717.26,165.312 1712.42,175.34C1710.34,179.46 1715.33,180.34 1713.54,184.82C1710.88,191.51 1704.81,195.74 1701.83,203.22C1704.15,207.16 1705.12,209.78 1710.75,210.46L1711.86,212.14L1706.29,214.37C1703.03,216.7 1702.1,222.44 1702.39,228.3L1709.08,237.22C1709.84,238.71 1709.14,237.56 1710.75,237.22C1711.75,240.35 1711.4,241.22 1710.75,244.47L1714.09,245.03C1712.96,250.85 1695.17,268.35 1708.52,272.9C1709.63,270.9 1708.26,271.96 1710.75,271.23C1711.34,275.8 1714.55,280.76 1716.88,285.16L1718.55,285.72C1724.02,281.72 1731.33,280.03 1735.28,274.57C1736.02,271.97 1736.76,269.37 1737.51,266.77C1739.37,263.85 1744.01,263.51 1745.87,260.08L1759.25,261.19L1759.25,262.31L1760.36,265.65C1760.18,266.21 1759.99,266.77 1759.81,267.32C1755.86,269.9 1751.52,267.78 1746.43,269L1735.84,278.47C1736.42,285.62 1735.93,284.54 1732.49,289.06C1733.49,292.86 1735.49,294.76 1737.49,297.43C1733.98,303.43 1726.8,305.12 1721.88,309.69C1722.16,312.245 1723.35,314.617 1725.22,316.38C1723.22,327.94 1710.54,335.94 1706.22,345.92C1697.39,366.56 1700.03,394.1 1690.61,412.26C1688.12,417.06 1682.97,416.33 1678.9,419.51L1670.54,433.44C1666.85,438.2 1660.83,441.3 1655.49,444.59C1652.52,449.423 1649.55,454.257 1646.57,459.09C1643.75,463.03 1639.75,464.64 1636.57,468.01C1634.52,472.277 1632.47,476.55 1630.44,480.83C1628.28,484.01 1626.88,481.19 1623.75,482.5C1620.62,483.81 1605.01,502.73 1604.75,507.59C1608.81,513.27 1629.75,533.27 1628.75,537.13L1633.21,538.25L1633.21,538.8L1629.31,541.03C1625.79,540.806 1622.45,539.396 1619.83,537.03C1617.97,535.268 1616.27,533.347 1614.75,531.29C1614.75,531.35 1614.8,531.41 1614.83,531.48L1613.71,531.48L1613.71,530.01C1612.15,528.002 1610.27,526.271 1608.14,524.89L1607.58,525.44C1609.58,527.98 1613.48,530.75 1611.48,535.44C1610.08,537.44 1609.64,536.02 1607.02,537.11C1604.61,538.43 1604.23,539.95 1604.24,542.11C1601.72,541.9 1601.84,542.11 1599.78,543.22C1599.03,541.887 1598.29,540.587 1597.55,539.32C1595.44,540.66 1596.16,540.88 1596.43,544.32C1593.84,544.12 1594.97,543.22 1593.64,545.43C1591.01,544.256 1588.99,542.031 1588.07,539.3L1586.4,539.3C1586.58,540.79 1586.77,542.3 1586.96,543.76C1584.96,543.76 1585.55,543.34 1582.5,543.76C1582.31,542.27 1582.12,540.76 1581.94,539.3C1579.2,540.54 1579.66,540.3 1580.82,542.65L1578.04,544.32L1575.81,541.53L1574.13,544.32L1576.92,547.1L1588.63,545.43L1589.19,545.99L1589.19,547.66C1583.42,549.49 1578.95,547.04 1571.9,548.78C1564.3,550.66 1561.8,556.91 1552.9,557.14C1550.44,554 1548.83,552.84 1549.56,547.66C1552.76,546.24 1552.98,543.17 1556.25,541.53C1557.35,540.64 1557.01,540.77 1559.03,540.42L1561.82,545.42L1564.05,545.98C1563.31,543.56 1562.56,541.15 1561.82,538.73C1564.64,538.56 1568.32,536.18 1573.53,535.95C1574.27,534.09 1575.01,532.23 1575.76,530.37L1575.76,529.81L1572.41,529.81L1571.3,525.35L1570.18,524.8L1569.62,524.8C1569.62,529.14 1570.3,531.26 1571.85,533.72L1556.25,534.83C1556.06,534.46 1555.87,534.09 1555.69,533.72C1556.5,528.36 1559.8,525.29 1561.26,519.22C1572.26,516.11 1585.59,514.58 1598.05,514.22C1601.19,517.36 1602.67,521.04 1606.42,523.69L1606.97,523.69L1600.28,512.54L1604.74,509.76L1604.74,508.08C1599.87,509.01 1594.62,511.94 1590.81,513.08L1580.81,512.52C1573.45,513.628 1566.18,515.299 1559.07,517.52C1557.15,523.79 1551.67,530.38 1554.61,535.36C1542.26,538.43 1521.24,541.02 1511.69,550.41C1511.28,554.5 1531.59,592.01 1535.1,598.91C1542.92,614.29 1545.03,654.86 1547.92,678.62C1550.69,701.31 1549.8,734.85 1544.58,758.34C1542.65,767.01 1539,779.1 1540.68,789C1542.29,798.52 1544.35,806.11 1547.92,813C1546.63,814.5 1546.1,838.63 1546.81,842.54C1548.26,850.59 1553.65,857.07 1552.94,867.07C1550.88,896.07 1550.94,922.71 1546.25,950.69C1543.41,967.69 1545.67,980.88 1542.35,996.96C1539.93,1008.11 1537.51,1019.25 1535.1,1030.4C1534.55,1030.78 1533.99,1031.15 1533.43,1031.52L1516.15,1009.78C1515.78,1011.08 1515.41,1012.38 1515.03,1013.68L1510.57,1009.78L1508.9,1011.45L1523.4,1031.52C1527.4,1033.37 1531.03,1032.52 1532.87,1035.98L1532.87,1040.98C1536.47,1042.98 1544.47,1041.66 1549.6,1042.65C1549.76,1020.65 1560.66,989.79 1566.32,969.65C1568.26,962.75 1566.13,957.78 1567.99,950.7C1573.79,928.7 1576.56,891.03 1577.99,866.52C1596.81,862.74 1598.43,898.78 1595.27,917.25C1586.91,966.06 1583.5,1038.41 1594.71,1087.83C1596.71,1096.74 1595.71,1108.02 1598.61,1115.7C1604.33,1116.7 1610.11,1113.93 1614.22,1113.47C1618.92,1108.53 1613.16,1078.78 1613.11,1067.76C1612.92,1032.32 1612.94,1003.21 1617.01,973.55C1617.67,968.7 1615.44,962.42 1618.12,957.39C1620.44,954.04 1676.02,949.98 1686.69,953.49C1690.46,957.67 1687.85,968.44 1688.92,975.23C1691.08,988.89 1689.92,1006.91 1695.05,1019.82C1697.88,1020.54 1704.43,1021.27 1707.32,1020.38C1712.9,1014.13 1709.73,959.66 1710.66,951.81C1736.29,950.07 1756.66,943.98 1779.78,938.44C1790.22,935.94 1799.71,936.64 1807.66,932.86L1808.77,933.98C1808.96,942.147 1809.14,950.32 1809.33,958.5C1809.14,963.52 1808.95,968.52 1808.77,973.5C1809.89,986.88 1811.01,1000.26 1812.12,1013.64L1812.12,1040.4C1806.95,1044.22 1799.01,1043.4 1796.51,1049.88C1803.32,1048.34 1804.51,1047.41 1812.12,1045.97C1812.9,1047.03 1812.12,1046.31 1813.23,1047.09C1807.96,1065.02 1772.76,1080.86 1774.23,1097.26L1766.42,1098.37L1764.19,1101.72L1765.87,1104.51C1782.69,1110.77 1836.43,1106.77 1847.26,1100.05C1853.26,1096.31 1854.13,1091.8 1857.85,1085.55C1863.35,1076.3 1875.85,1079.01 1886.85,1078.31C1889.98,1073.54 1892.25,1068.26 1893.54,1062.7C1893.36,1061.21 1893.17,1059.7 1892.99,1058.24C1894.18,1055.4 1898.99,1054.06 1900.23,1050.43C1904.42,1038.53 1900.77,1020.17 1902.46,1008.62C1908.3,968.8 1916.73,913.89 1906.92,872.62C1904.09,860.67 1906.92,849.14 1904.14,838.62L1905.25,837.51C1906.62,842.28 1911.48,847.45 1916.96,848.1C1920.68,842.264 1924.78,836.675 1929.22,831.37C1937.74,838.76 1942.83,850.82 1949.85,859.8C1949.66,860.73 1949.47,861.66 1949.29,862.59C1951.29,870.79 1947.42,879.18 1949.85,887.68L1953.75,899.38C1957.16,901.43 1957.54,900.45 1961,898.83L1959.32,902.17L1961,904.4L1963.78,903.84C1970.99,896.9 1987.26,844.24 1984.41,828.59C1982.41,817.87 1979.9,807.36 1981.06,796.26L1988.4,795.72ZM1933.21,613.33C1932.5,612.951 1931.92,612.369 1931.54,611.66C1932.59,612.44 1932.46,612.19 1933.21,613.33ZM1929.87,629.5L1930.98,630.06L1930.98,630.61L1929.87,631.17L1929.31,630.06L1929.87,629.5ZM1926,625L1927.67,625C1926.06,625.59 1927.37,626 1926,625ZM1927.11,587.09C1925.45,586.37 1926.44,587.09 1925.44,585.98C1927.07,586.74 1926.08,586 1927.08,587.13L1927.11,587.09ZM1926,594.34L1927.11,594.34L1925.44,595.46C1925.59,595.12 1925.78,594.75 1926,594.38L1926,594.34ZM1918.75,537.48C1917.08,536.76 1918.08,537.48 1917.08,536.37C1918.71,537.13 1917.72,536.38 1918.72,537.52L1918.75,537.48ZM1905.93,507.38L1904.81,506.26C1905.84,507.08 1905.12,506.35 1905.9,507.42L1905.93,507.38ZM1904.81,465.57L1904.26,466.68C1904.07,466.31 1903.88,465.94 1903.7,465.57L1904.81,465.57ZM1612.12,508L1612.12,506.88C1612.63,507.85 1612.67,507 1612.12,508ZM1694.62,556.49L1694.07,555.38C1695.07,556.1 1694.39,556 1694.62,556.47L1694.62,556.49ZM1695.74,846.37C1694.4,847.02 1695.01,847.75 1694.07,846.37L1695.74,846.37ZM1694.62,894.87C1693.29,895.52 1693.89,896.25 1692.95,894.87L1694.62,894.87ZM1684.62,495.73C1685.13,496.73 1685.16,495.87 1684.62,496.85L1684.62,495.73ZM1657.86,515.8C1657.15,515.421 1656.57,514.839 1656.19,514.13L1657.86,515.8ZM1647.86,461.17L1648.97,462.84L1647.86,462.84L1647.86,461.17ZM1644.51,529.17C1655.51,516.57 1674.31,512.17 1684.09,497.95L1686.32,497.95C1687.44,510.77 1688.56,523.593 1689.67,536.42L1689.11,536.97C1675.54,535.46 1657.26,529.85 1644.51,529.73L1644.51,529.17ZM1686.88,756.61L1686.32,755.49C1687.27,756.22 1686.58,756.08 1686.82,756.6L1686.88,756.61ZM1686.32,567.61L1685.21,566.5L1685.76,565.94L1687.44,566.5L1686.32,567.61ZM1683.47,702L1682.92,700.88C1683.92,701.59 1683.24,701.45 1683.47,702ZM1681.24,869.79L1680.69,869.79C1680.5,869.05 1680.32,868.3 1680.13,867.56C1681.27,868.62 1680.74,867.73 1681.24,869.76L1681.24,869.79ZM1679.57,749.94C1679.39,749.57 1679.2,749.2 1679.01,748.82C1680,749.53 1679.34,749.39 1679.57,749.91L1679.57,749.94ZM1676.23,539.78C1676.41,539.41 1676.6,539.04 1676.79,538.67C1676.53,539.25 1677.26,539.06 1676.23,539.75L1676.23,539.78ZM1672.33,584.38C1671.27,583.59 1671.99,584.33 1671.21,583.26L1672.33,584.38ZM1645,711.44L1646.67,712.56L1646.67,713.12L1644.44,712.56C1644.64,712.19 1644.82,711.82 1645,711.44ZM1643.89,535.85C1643.7,536.22 1643.51,536.59 1643.33,536.96L1642.77,535.85L1643.89,535.85ZM1636.08,473.41C1635.9,473.04 1635.71,472.67 1635.52,472.3C1636.54,473 1635.85,472.9 1636.09,473.41L1636.08,473.41ZM1626.08,549.78L1627.19,549.78L1627.19,551.46L1626.63,551.46L1625.52,550.34L1626.08,549.78ZM1612.14,549.78C1612.33,550.53 1612.51,551.27 1612.7,552.01L1612.14,552.01L1612.14,549.78ZM1603.78,543.65L1603.22,542.54C1604.21,543.28 1603.52,543.13 1603.76,543.65L1603.78,543.65ZM1577.58,827.39L1578.69,828.51C1577.62,827.73 1578.33,828.47 1577.56,827.39L1577.58,827.39ZM1582.04,853.59C1581.67,853.97 1581.3,854.34 1580.92,854.71L1580.37,854.15L1580.92,853.04L1582,853.04L1582.04,853.59ZM1581.48,781.68L1582.04,780.57L1583.15,780.57C1582.13,781.69 1583.15,781 1581.46,781.68L1581.48,781.68ZM1585.38,862.51C1586.44,863.3 1585.72,862.51 1586.5,863.63L1585.38,862.51ZM1567.54,790.6L1565.87,791.72C1561.69,775.05 1566.2,752.28 1567.54,734.86C1576.47,732.34 1626.96,724.04 1631.09,719.81L1632.21,720.92C1631.75,722.47 1631.92,721.92 1632.77,723.15C1638.77,720.68 1671.32,721.85 1676.77,724.82L1677.88,724.82C1679.07,732.93 1671.42,745.2 1669.52,753.82C1669.7,758.487 1669.89,763.133 1670.08,767.76C1644.81,761.51 1580,770.71 1567.52,790.6L1567.54,790.6ZM1672.9,845.23C1671.57,845.89 1672.17,846.62 1671.23,845.23L1672.9,845.23ZM1661.75,841.33C1660.09,840.61 1661.09,841.33 1660.08,840.22L1661.75,841.33ZM1653.39,774.44C1652.74,775.115 1651.99,775.68 1651.16,776.11L1650,775L1650.55,774.45L1653.39,774.44ZM1631.65,786.14C1631.47,785.77 1631.28,785.4 1631.09,785.03C1632.08,785.77 1631.4,785.63 1631.63,786.14L1631.65,786.14ZM1626.08,868.65C1625.89,868.27 1625.71,867.9 1625.52,867.53C1626.5,868.27 1625.82,868.13 1626.06,868.65L1626.08,868.65ZM1621.62,910.45L1619.95,912.13C1620.13,911.01 1620.32,909.9 1620.5,908.78L1621.62,910.45ZM1606.62,776.11L1608.29,777.22C1606.21,777.37 1607.59,777.83 1606.55,776.11L1606.62,776.11ZM1607.17,780.57L1606,782.8C1606.18,782.06 1606.37,781.31 1606.56,780.57L1607.17,780.57ZM1599.37,946.13L1598.81,945.02C1599.75,945.76 1599.06,945.61 1599.3,946.13L1599.37,946.13ZM1598.25,926.62L1597.7,925.51C1598.63,926.24 1598,926.1 1598.18,926.62L1598.25,926.62ZM1598.25,830.74C1599.25,831.48 1598.58,831.34 1598.81,831.85C1598.56,831.48 1598.37,831.11 1598.18,830.74L1598.25,830.74ZM1596.58,936.1C1597.71,937.1 1597,936.1 1597.7,937.77L1596.58,937.77L1596.58,936.1ZM1597.14,1016.93C1596.95,1016.56 1596.77,1016.18 1596.58,1015.81C1597.64,1015.03 1596.92,1015.81 1597.7,1014.7L1599.37,1015.81C1599.18,1016.18 1599,1016.56 1598.81,1016.93L1597.14,1016.93ZM1599.37,1060.41L1599.37,1059.29C1599.81,1060.29 1599.84,1059.44 1599.3,1060.41L1599.37,1060.41ZM1603.27,1025.29L1604.39,1026.4C1603.26,1025.62 1604,1026.36 1603.2,1025.29L1603.27,1025.29ZM1604.94,908.78L1604.94,906.55C1605.13,907.3 1605.32,908.04 1605.5,908.78L1604.94,908.78ZM1604.94,900.42L1604.39,899.31C1605.32,900 1604.64,899.9 1604.87,900.42L1604.94,900.42ZM1606.06,996.86C1606.24,996.3 1606.43,995.74 1606.62,995.19C1607,996.56 1606.75,995.66 1606,996.86L1606.06,996.86ZM1607.17,967.86L1606.62,966.75C1607.55,967.5 1606.87,967.35 1607.1,967.87L1607.17,967.86ZM1609.96,1061.51C1610.15,1060.96 1610.33,1060.4 1610.52,1059.84C1610.54,1061.31 1611.06,1060.25 1609.89,1061.52L1609.96,1061.51ZM1612.19,873.1C1612.01,872.72 1611.82,872.35 1611.63,871.98C1612.57,872.73 1611.88,872.59 1612.12,873.11L1612.19,873.1ZM1613.86,917.1L1613.86,916C1614.3,917 1614.34,916.17 1613.79,917.14L1613.86,917.1ZM1612.75,865.82L1611.63,866.93C1609.21,864.45 1603.56,855.63 1603.83,853C1608.3,854.304 1612.22,857.046 1614.98,860.8C1616.18,863.57 1614.93,864.91 1612.68,865.86L1612.75,865.82ZM1616.09,840.73L1617.21,841.29L1616.09,842.41L1616.09,840.73ZM1616.65,912.09L1617.21,910.97L1618.32,910.97C1619.31,912.57 1618.2,911.83 1616.58,912.13L1616.65,912.09ZM1617.21,915.43C1618.87,916.15 1617.88,915.43 1618.88,916.55L1617.21,915.43ZM1630,946.13L1629.44,945.02L1630.56,945.02L1630,946.13ZM1636.13,941.67L1637.25,941.11C1638.41,941.44 1636.09,941.67 1636.09,941.67L1636.13,941.67ZM1690.2,886.48C1686.32,901.1 1689.04,916.91 1688.53,933.31C1669.53,943.01 1640.71,936.31 1621.64,943.31L1619.97,943.31C1621.45,926.41 1622.93,909.503 1624.42,892.59C1624.24,885.53 1624.06,878.467 1623.87,871.4C1624.76,872.5 1624.62,872.16 1624.98,874.19C1630.76,877.46 1680.83,873.05 1690.76,871.96L1690.76,873.08C1690.76,873.08 1691.13,882.84 1690.16,886.48L1690.2,886.48ZM1693.55,773.88C1691.88,773.16 1692.88,773.88 1691.88,772.76C1693.5,773.49 1692.51,772.74 1693.51,773.88L1693.55,773.88ZM1694.11,899.88L1696.34,900.44L1696.34,901.56C1695.96,902.11 1695.59,902.67 1695.22,903.23L1693,903.23C1692.82,902.67 1692.63,902.11 1692.44,901.56L1694.11,899.88ZM1694.11,919.39L1694.11,918.28C1694.57,919.25 1694.61,918.4 1694.07,919.37L1694.11,919.39ZM1693.55,987.96L1694.66,989.08L1694.66,990.75L1693,990.75C1693.14,989.8 1693.32,988.87 1693.51,987.94L1693.55,987.96ZM1695.78,926.08L1695.22,924.97C1696.19,925.69 1695.5,925.55 1695.74,926.06L1695.78,926.08ZM1696.34,1007.47L1698,1007.47C1696.63,1008.1 1697.24,1008.83 1696.3,1007.45L1696.34,1007.47ZM1698.01,971.79C1699.13,972.79 1698.42,971.79 1699.12,973.47L1698.01,971.79ZM1699.68,935L1699.12,933.89C1700.09,934.61 1699.4,934.47 1699.64,935L1699.68,935ZM1701.91,998.55L1701.35,997.44C1702.32,998.16 1701.63,998 1701.87,998.53L1701.91,998.55ZM1707.49,725.4L1708.04,724.29L1709.16,725.4L1707.49,725.4ZM1706.93,543.11L1706.93,542.56L1708.6,542C1710.52,541.51 1708.55,542.87 1706.89,543.09L1706.93,543.11ZM1816.19,573.22L1815.63,574.33L1815.07,573.22L1816.19,573.22ZM1813.92,935L1813.92,933.33L1814.48,933.33C1814.29,933.87 1814.1,934.43 1813.92,935ZM1814.48,896.54L1815.59,896.54L1815.59,899.33L1815,899.33C1814.85,898.38 1814.66,897.45 1814.48,896.52L1814.48,896.54ZM1802.77,730.4L1802.21,731.51C1802.03,731.14 1801.84,730.77 1801.65,730.4L1802.77,730.4ZM1798.31,700.85C1798.5,701.22 1798.68,701.6 1798.87,701.97L1797.75,701.97C1797.94,701.6 1798.12,701.22 1798.31,700.85ZM1798.31,715.35L1797.19,714.23C1798.25,715 1797.53,714.28 1798.31,715.35ZM1796.64,555.92L1796.08,554.8C1797.08,555.54 1796.4,555.4 1796.64,555.92ZM1795,723.71L1796.68,724.27C1799.04,725.81 1799.57,727.65 1798.35,729.84C1796.74,731.64 1792.61,731.77 1789.99,730.4L1788.87,730.4L1788.87,729.84C1790.52,727.14 1793,726.11 1795,723.71ZM1788.32,563.71L1789.43,563.71L1788.87,564.83C1788.65,564.46 1788.46,564.09 1788.28,563.72L1788.32,563.71ZM1791.66,709.71C1791.47,710.08 1791.29,710.46 1791.1,710.83L1790.55,709.71L1791.66,709.71ZM1767.09,537C1770.88,538.68 1791.73,557.51 1792.73,561C1776.35,560.23 1775.73,543.15 1759.85,540.93C1763,539.37 1764.82,539.08 1767.09,537ZM1787.72,842.49L1787.72,843L1786.6,843.56L1786.05,842.45L1786.6,841.89L1787.72,842.49ZM1782.72,559.3L1780.49,560.42C1780.68,560.04 1780.86,559.67 1781.05,559.3L1782.72,559.3ZM1757.08,533.66C1755.08,533.27 1755.4,533.44 1754.29,532.54C1756.28,532.89 1756,532.73 1757.06,533.62L1757.08,533.66ZM1744.26,539.79C1755.62,540.54 1762.1,541.53 1769.34,547.04C1773.34,550.04 1773.68,554.18 1779.34,555.96L1780.45,557.63C1780.27,558.37 1780.08,559.12 1779.89,559.86C1770.05,561.169 1760.06,560.79 1750.35,558.74L1743.1,557.07C1738.61,558.15 1733.1,562.81 1728.61,562.65L1727.49,564.32C1728.24,565.8 1728.99,567.287 1729.72,568.78C1727.57,570.65 1726.23,569.92 1725.26,573.24L1721.92,573.24C1721.73,572.87 1721.55,572.49 1721.36,572.12C1723.02,567.31 1722.36,561.74 1720.8,556.51C1727.6,549.69 1738.06,547.2 1744.24,539.75L1744.26,539.79ZM1777.15,563.2L1777.7,562.09C1777.89,562.46 1778.08,562.83 1778.26,563.2L1777.15,563.2ZM1771,855.82L1769.89,854.71C1770.94,855.49 1770.22,854.75 1771,855.82ZM1764.31,745.45C1763.31,744.67 1763.98,745.45 1763.2,744.33L1764.31,745.45ZM1761,727.61L1759.89,726.5C1760.9,727.28 1760.18,726.54 1761,727.61ZM1749.81,576C1748.15,575.28 1749.14,576 1748.14,574.89C1749.8,575.59 1748.81,574.85 1749.81,576ZM1743.12,788.39C1741.46,787.67 1742.45,788.39 1741.45,787.28C1743.11,788 1742.12,787.23 1743.12,788.37L1743.12,788.39ZM1733.65,581.58L1732,581.58C1732.19,581.21 1732.37,580.84 1732.56,580.46L1733.12,580.46C1733.27,580.82 1733.46,581.19 1733.65,581.56L1733.65,581.58ZM1721.38,532C1720.62,531.436 1720.04,530.661 1719.71,529.77L1721.38,532ZM1721.38,852.53C1720.04,853.18 1720.65,853.91 1719.71,852.53L1721.38,852.53ZM1716.38,540.91C1716.2,541.29 1716.01,541.66 1715.83,542.03C1715.64,541.66 1715.46,541.29 1715.27,540.91L1716.38,540.91ZM1713.6,549.83L1714.71,550.39L1713.6,551.51L1713.6,549.83ZM1716.94,567.12L1719.17,567.67L1719.17,573.8L1713.6,575.48C1713.41,574.73 1713.23,573.99 1713.04,573.25L1716.94,567.12ZM1713,862C1714.14,863.09 1713.61,862.19 1714.11,864.23L1713,864.23L1713,862ZM1712.44,936.14L1714.11,937.25C1712.47,936.49 1713.47,937.24 1712.46,936.1L1712.44,936.14ZM1762.06,934.47C1762.24,934.09 1762.43,933.72 1762.61,933.35C1762.69,934.44 1763.22,933.94 1762.08,934.43L1762.06,934.47ZM1765.96,933.91L1765.4,933.91C1765.03,933.54 1764.66,933.16 1764.28,932.79L1765.4,931.68L1766.51,931.68C1766.35,932.38 1766.16,933.12 1766,933.87L1765.96,933.91ZM1811.67,923.91C1811.85,923.54 1812.04,923.17 1812.23,922.8C1812.53,923.93 1812.69,923.09 1811.69,923.83L1811.67,923.91ZM1810,917.22C1800.59,918.35 1785.8,922.46 1776,924.47L1712.45,930.6L1711.89,930.6C1708.99,920.09 1713.4,870.54 1716.89,868.17C1721.19,866.05 1729.05,868.62 1733.62,867.61C1745.91,864.89 1801.51,865.84 1808.87,859.25L1815,860.92L1810,917.22ZM1813.9,1028.16L1813.9,1026.48L1816.13,1026.48C1816.31,1027.04 1816.5,1027.6 1816.69,1028.16L1816.69,1028.71L1815,1028.71L1813.9,1028.16ZM1820.03,1042.09L1817.8,1042.09L1816.69,1041.54C1816.87,1041.16 1817.06,1040.79 1817.24,1040.42C1819.24,1040.81 1818.92,1040.64 1820.03,1041.54L1820.03,1042.09ZM1820.03,957.92L1820.03,956.25L1821.15,957.36L1820.03,957.92ZM1822.26,853.67C1822.07,852.75 1821.89,851.82 1821.7,850.89C1822.07,851.82 1822.45,852.75 1822.82,853.67L1822.26,853.67ZM1825.6,921.13C1825.42,920.75 1825.23,920.38 1825.05,920.01C1826.07,920.67 1825.39,920.53 1825.62,921.05L1825.6,921.13ZM1826.72,920.57C1828.38,921.29 1827.39,920.57 1828.39,921.68L1826.72,920.57ZM1839,737.65L1837.89,735.97C1839,737 1838.3,736 1839,737.65ZM1830.64,1066C1832.36,1063.08 1833.92,1062.06 1836.22,1059.87C1835.47,1058.57 1834.73,1057.27 1833.99,1055.97L1842.91,1057.64C1841.51,1060.72 1833.75,1064.7 1830.64,1066ZM1854.05,1059.87L1853.5,1058.76C1854.5,1059.48 1853.82,1059.33 1854.05,1059.85L1854.05,1059.87ZM1861.3,641.23C1861.12,640.85 1860.93,640.48 1860.74,640.11C1861.75,640.83 1861.07,640.69 1861.3,641.21L1861.3,641.23ZM1872.45,1072.14C1872.64,1071.58 1872.82,1071.02 1873.01,1070.46L1873.57,1070.46C1872.84,1072.11 1873.59,1071.11 1872.45,1072.12L1872.45,1072.14ZM1878.58,733.21L1880.25,733.76L1880.25,734.32L1878,734.32L1878.58,733.21ZM1878.03,1058.21L1878.03,1057.65L1880.25,1056.54L1881.93,1057.09C1880.72,1058 1880.43,1058.06 1878,1058.18L1878.03,1058.21ZM1898.65,708.69L1897.54,707.57C1898.59,708.32 1897.87,707.59 1898.65,708.66L1898.65,708.69ZM1900.88,707.57L1899.77,708.13C1899.58,707.57 1899.39,707.02 1899.21,706.46L1900.88,707.57ZM1896.42,694.19L1898.09,694.19C1898.46,696.05 1898.84,697.91 1899.21,699.77L1895.31,698.65L1896.42,694.19ZM1893.08,694.75L1894.19,695.87C1893.13,695.06 1893.85,695.79 1893.08,694.72L1893.08,694.75ZM1889.73,698.1C1888.07,697.38 1889.06,698.1 1888.06,696.98L1889.73,698.1ZM1886.94,1006.37L1887.5,1005.25C1887.69,1005.62 1887.87,1005.99 1888.06,1006.37L1886.94,1006.37ZM1886.94,956.75C1887.32,956.2 1887.69,955.64 1888.06,955.08L1889.17,955.08L1888.06,957.31L1886.94,956.75ZM1888.62,1007.48C1888.8,1006.92 1888.99,1006.37 1889.17,1005.81C1889.63,1007.15 1889.38,1006.26 1888.62,1007.45L1888.62,1007.48ZM1889.73,822.41C1890.79,823.19 1890.07,822.41 1890.85,823.52L1889.73,822.41ZM1892.52,693.64C1891.43,692.19 1891.97,693.11 1891.96,691.41L1893.08,691.96C1892.89,692.49 1892.7,693.05 1892.52,693.61L1892.52,693.64ZM1895.31,815.72L1895.31,814C1896.43,815 1895.72,814 1896.42,815.67L1895.31,815.72ZM1898.65,986.3L1899.77,987.41C1898.71,986.6 1899.43,987.34 1898.65,986.27L1898.65,986.3ZM1901.44,938.36L1899.21,937.8C1899.39,937.43 1899.58,937.06 1899.77,936.69L1901.44,936.69L1901.44,938.36ZM1902.55,692.52L1900.88,692.52L1900.88,690.85L1902.55,691.96L1902.55,692.52ZM1905.9,749.38C1904.84,748.6 1905.56,749.38 1904.78,748.27L1905.9,749.38ZM1904.23,753.84C1904.41,752.54 1904.6,751.24 1904.78,749.94C1904.97,751.05 1905.15,752.17 1905.34,753.28L1904.23,753.84ZM1906.46,808.47L1905.9,807.36C1906.9,808.06 1906.22,807.92 1906.46,808.44L1906.46,808.47ZM1907.57,835.79L1906.46,834.11L1908.68,834.67L1907.57,835.79ZM1953.28,758.3C1954.28,759.91 1954,758.71 1953.28,760.53L1953.28,761.65L1952.17,760.53L1953.28,758.3ZM1918.16,767.22L1919.28,768.33C1918.22,767.52 1918.94,768.26 1918.16,767.19L1918.16,767.22ZM1924.85,764.99C1924.67,764.62 1924.48,764.25 1924.29,763.88L1925.41,763.88L1924.85,764.99ZM1924.29,761.65L1924.29,759.97L1925.41,760.53L1924.29,761.65ZM1928.75,824.08C1929.81,824.86 1929.09,824.08 1929.87,825.19L1928.75,824.08ZM1926,751L1926,748.77C1929.06,748.97 1930.51,749.49 1932.13,751L1926,751ZM1933.8,754.91C1935.46,755.63 1934.47,754.91 1935.47,756.02C1933.78,755.32 1934.77,756.06 1933.77,754.93L1933.8,754.91ZM1937.14,811.21L1937.14,809.54L1937.7,809.54C1937.49,810.11 1937.3,810.67 1937.11,811.23L1937.14,811.21ZM1938.26,793.37L1938.26,792.26C1938.74,793.27 1938.77,792.42 1938.23,793.39L1938.26,793.37ZM1938.82,753.79L1938.26,752.68C1939.23,753.43 1938.55,753.29 1938.79,753.81L1938.82,753.79ZM1941.6,810.09L1942.72,810.09L1942.16,811.21L1941.6,810.09ZM1944.39,779.43L1944.39,777.76L1946,777.76C1945.48,778.34 1944.92,778.9 1944.36,779.45L1944.39,779.43ZM1948.29,821.24L1949.41,821.24L1947.18,822.92L1948.29,821.24ZM1955.54,847.44L1955.54,848.56L1947.74,838.56L1949.97,837.45C1953.87,839.34 1954.32,842.58 1956.66,845.81L1955.54,847.44ZM1958.89,792.26C1958.7,792.63 1958.51,793 1958.33,793.37L1957.77,792.26L1958.89,792.26ZM1959.44,871.97C1958.11,872.62 1958.71,873.35 1957.77,871.97L1959.44,871.97ZM1959.44,886.46L1958.89,887.02L1958.33,887.02C1957.96,885.35 1957.58,883.68 1957.21,882.02L1959.44,882.58C1959.63,883.14 1959.81,883.7 1960,884.25C1959.78,885 1959.6,885.74 1959.41,886.48L1959.44,886.46ZM1961.12,884.23L1961.12,883.12C1961.59,884.13 1961.63,883.28 1961.09,884.25L1961.12,884.23ZM1967.25,756.58C1968.83,758.34 1967.84,762.73 1967.8,765.5L1967.25,765.5C1965.39,763.26 1966.22,759.13 1967.22,756.6L1967.25,756.58ZM1967.25,829.05L1967.25,827.37L1968.92,827.93L1967.25,829.05ZM1968.92,766.61C1969.11,766.06 1969.29,765.5 1969.48,764.94C1969.66,765.68 1969.85,766.43 1970.03,767.17L1969.48,767.17L1968.92,766.61ZM1970.03,776.09L1970.03,773.3L1971.15,774.97C1970.75,775.37 1970.38,775.74 1970,776.11L1970.03,776.09ZM1972.82,826.82C1972.64,826.45 1972.45,826.07 1972.26,825.7L1973.38,825.7C1973.16,826.09 1973,826.47 1972.79,826.84L1972.82,826.82ZM1978.4,810.09C1978.21,809.72 1978.02,809.35 1977.84,808.98L1978.95,808.98L1978.4,810.09Z" style="fill:rgb(3,122,51);fill-rule:nonzero;"/>
            </g>
            <g transform="matrix(1,0,0,1,-198.58,-107.45)">
                <path d="M1613.79,529.72L1613.79,529.92C1614.14,530.34 1614.49,530.77 1614.79,531.2C1614.27,529.79 1614.87,530.68 1613.79,529.72Z" style="fill:rgb(3,122,51);fill-rule:nonzero;"/>
            </g>
            <g transform="matrix(1,0,0,1,-198.58,-107.45)">
                <path d="M1618.81,535.85L1619.91,536.94C1619.15,535.9 1619.87,536.63 1618.81,535.85Z" style="fill:rgb(3,122,51);fill-rule:nonzero;"/>
            </g>
            <g transform="matrix(1,0,0,1,-198.58,-107.45)">
                <path d="M1974.46,753.81C1974.28,754.18 1974.09,754.55 1973.91,754.93C1974.74,754 1974.79,755 1974.46,753.81Z" style="fill:rgb(3,122,51);fill-rule:nonzero;"/>
            </g>
        </g>
        <g transform="matrix(1,0,0,1,-198.58,-107.45)">
            <path d="M1824.51,1076L1823.95,1077.11L1825.07,1077.11L1824.51,1076Z" style="fill:rgb(35,31,32);fill-rule:nonzero;stroke:white;stroke-width:1px;"/>
        </g>
        <g transform="matrix(1,0,0,1,-198.58,-107.45)">
            <path d="M1818.38,1078.81L1814.48,1083.26L1815.03,1083.26L1819.49,1080.48C1818.79,1078.79 1819.5,1079.81 1818.38,1078.81Z" style="fill-rule:nonzero;"/>
        </g>
        <g transform="matrix(1,0,0,1,-198.58,-107.45)">
            <path d="M1827.3,1078.81L1828.97,1079.36L1827.3,1078.81Z" style="fill:rgb(35,31,32);fill-rule:nonzero;stroke:white;stroke-width:1px;"/>
        </g>
        <g transform="matrix(1,0,0,1,-198.58,-107.45)">
            <path d="M1841.79,1079.92L1841.23,1080.48L1842.35,1081.59L1842.91,1079.92L1841.79,1079.92Z" style="fill-rule:nonzero;"/>
        </g>
        <g transform="matrix(1,0,0,1,-198.58,-107.45)">
            <path d="M1612.12,1081L1613.24,1081.56L1612.12,1081Z" style="fill:rgb(35,31,32);fill-rule:nonzero;stroke:white;stroke-width:1px;"/>
        </g>
        <g transform="matrix(1,0,0,1,-198.58,-107.45)">
            <path d="M1798.87,1082.15L1799.98,1082.71L1798.87,1082.15Z" style="fill:rgb(35,31,32);fill-rule:nonzero;stroke:white;stroke-width:1px;"/>
        </g>
        <g transform="matrix(1,0,0,1,-198.58,-107.45)">
            <path d="M1787.16,1087.17L1788.28,1087.72L1787.16,1087.17Z" style="fill:rgb(35,31,32);fill-rule:nonzero;stroke:white;stroke-width:1px;"/>
        </g>
        <g transform="matrix(1,0,0,1,-198.58,-107.45)">
            <path d="M1601.53,1090.51L1601.53,1093.3L1602.09,1093.3L1602.64,1092.74C1601.93,1091.14 1603,1091.74 1601.53,1090.51Z" style="fill-rule:nonzero;"/>
        </g>
        <g transform="matrix(1,0,0,1,-198.58,-107.45)">
            <path d="M1835.66,1092.18L1836.22,1093.3C1836,1092.78 1836.66,1092.92 1835.66,1092.18Z" style="fill:rgb(35,31,32);fill-rule:nonzero;stroke:white;stroke-width:1px;"/>
        </g>
    </g>
    <g id="Tagebuch_weiss_gelb">
        <g transform="matrix(0.88063,0,0,0.882028,-43.949,-35.3271)">
            <path d="M261.34,965L260.76,953.25C266.338,952.94 271.882,952.188 277.34,951C280.02,950.4 281.9,949.53 282.96,948.4C284.02,947.27 284.77,945.25 285.18,942.34C285.633,938.3 285.46,923.543 284.66,898.07C284.027,879.977 283.243,861.517 282.31,842.69C280.457,805.69 279.4,786.843 279.14,786.15C278.87,785.46 275.55,785.28 269.2,785.6C256.2,786.267 245.043,787.197 235.73,788.39C230.33,789.13 227.29,789.75 226.61,790.25C225.837,790.897 225.311,791.791 225.12,792.78C224.8,793.96 224.413,802.183 223.96,817.45L211.96,818.05C211.253,800.183 210.017,784.817 208.25,771.95L209.74,770.75C239.187,770.683 267.813,769.957 295.62,768.57C323.32,767.19 354.3,764.94 388.56,761.82L390.21,763.99C389.083,776.903 388.573,791.983 388.68,809.23L377.07,809.81C375.45,794.13 374.187,785.65 373.28,784.37C372.573,783.363 371.043,782.73 368.69,782.47C361.17,781.617 346.307,781.747 324.1,782.86C322.24,782.95 321.1,783.29 320.79,783.86C320.48,784.43 320.38,787.02 320.6,791.31L324.46,885.47C325.793,912.73 326.86,929.453 327.66,935.64C328.46,941.827 329.777,945.527 331.61,946.74C332.87,947.52 340.28,948.133 353.84,948.58L354.43,960.33C340.663,960.37 326.07,960.773 310.65,961.54C290.363,962.567 273.927,963.72 261.34,965Z" style="fill:rgb(3,122,51);fill-rule:nonzero;"/>
        </g>
        <g transform="matrix(0.88063,0,0,0.882028,-43.949,-35.3271)">
            <path d="M522.91,939.54L523.48,951.01L512.65,951.13C506.93,951.13 501.22,951.277 495.52,951.57C486.733,952.01 478.423,952.703 470.59,953.65L469.11,952.19L469.55,932.94L441.45,956.24C436.982,957.587 432.376,958.425 427.72,958.74C417.847,959.233 410.063,956.677 404.37,951.07C398.677,945.463 395.553,937.017 395,925.73C394.333,911.83 397.52,901.85 404.56,895.79C413.687,887.863 434.353,880.147 466.56,872.64C465.82,861.6 463.513,853.687 459.64,848.9C454.18,842.32 446.103,839.297 435.41,839.83C432.802,839.964 430.219,840.397 427.71,841.12C424.965,841.909 422.318,843.006 419.82,844.39L414.29,859.68L404.52,857.78L404.52,851.47L404.08,845.32L403.66,839.73C417.493,830.15 427.477,824.087 433.61,821.54C438.103,819.627 444.403,818.47 452.51,818.07C463.517,817.517 472.557,818.73 479.63,821.71C486.703,824.69 491.967,828.95 495.42,834.49C498.867,840.03 500.867,848.27 501.42,859.21C501.647,863.797 501.87,871.99 502.09,883.79C502.323,895.963 502.623,905.74 502.99,913.12C503.57,924.807 504.237,931.897 504.99,934.39C505.443,935.872 506.5,937.096 507.9,937.76C509.367,938.533 514.37,939.127 522.91,939.54ZM467.14,884.67C450.96,889.037 440.51,893.427 435.79,897.84C431.07,902.253 428.887,907.973 429.24,915C429.52,920.713 431.323,925.127 434.65,928.24C437.932,931.346 442.386,932.914 446.89,932.55C454.223,932.19 461.557,927.653 468.89,918.94L467.14,884.67Z" style="fill:rgb(3,122,51);fill-rule:nonzero;"/>
        </g>
        <g transform="matrix(0.88063,0,0,0.882028,-43.949,-35.3271)">
            <path d="M677,835.06L653.77,836.22C655.22,840.299 656.095,844.56 656.37,848.88C657.23,866.08 651.747,879.193 639.92,888.22C628.093,897.247 613.997,902.173 597.63,903C595.03,903.127 591.203,903.127 586.15,903C581.99,905.74 579.367,907.883 578.28,909.43C577.208,910.914 576.682,912.723 576.79,914.55C577.01,919.03 580.27,921.58 586.57,922.2C590.037,922.58 608.987,921.913 643.42,920.2C654.98,919.62 663.03,920.223 667.57,922.01C672.11,923.797 675.95,927.18 679.09,932.16C682.23,937.153 684.007,943.707 684.42,951.82C685.353,970.573 678.72,986.66 664.52,1000.08C650.32,1013.5 630.58,1020.83 605.3,1022.08C583.853,1023.15 567.67,1020.2 556.75,1013.21C545.83,1006.22 540.08,996.89 539.5,985.21C539.16,978.503 540.513,972.837 543.56,968.21C544.953,966.083 549.907,962.283 558.42,956.81L568.21,950.57C560.583,949.457 555.447,947.727 552.8,945.38C550.153,943.033 548.717,939.577 548.49,935.01C548.25,930.07 549.767,923.917 553.04,916.55L557.51,913.38C562.61,909.707 567.473,905.715 572.07,901.43C561.203,898.143 553.237,893.35 548.17,887.05C543.103,880.75 540.327,872.657 539.84,862.77C539.12,848.49 544.023,836.49 554.55,826.77C565.077,817.05 580.243,811.683 600.05,810.67C608.752,810.114 617.489,810.668 626.05,812.32C632.043,813.72 637.75,816.142 642.92,819.48C663.447,818.553 676.82,817.603 683.04,816.63L685.56,819.41C682.407,824.457 679.549,829.683 677,835.06ZM583.68,951.52C576.14,957.713 571.273,962.783 569.08,966.73C566.859,970.816 565.85,975.451 566.17,980.09C566.385,988.628 570.699,996.56 577.75,1001.38C585.03,1006.59 595.48,1008.86 609.1,1008.18C618.887,1007.69 627.157,1005.73 633.91,1002.3C640.663,998.867 645.63,994.353 648.81,988.76C651.979,983.186 653.463,976.81 653.08,970.41C652.78,964.33 651.113,959.257 648.08,955.19C645.928,952.418 642.804,950.562 639.34,950C635.7,949.333 625.3,949.43 608.14,950.29L583.68,951.52ZM575.49,852.11C576.19,866.11 578.747,875.87 583.16,881.39C587.573,886.91 593.627,889.463 601.32,889.05C608.36,888.703 613.693,885.93 617.32,880.73C620.947,875.53 622.507,867.62 622,857C621.413,845.32 618.97,836.913 614.67,831.78C610.37,826.647 604.557,824.267 597.23,824.64C590.19,824.987 584.697,827.58 580.75,832.42C576.803,837.26 575.05,843.823 575.49,852.11Z" style="fill:rgb(3,122,51);fill-rule:nonzero;"/>
        </g>
        <g transform="matrix(0.88063,0,0,0.882028,-43.949,-35.3271)">
            <path d="M812.77,909.47L817.02,913.34L811.42,927.04C804.916,931.545 797.787,935.072 790.26,937.51C782.352,940.037 774.144,941.5 765.85,941.86C745.51,942.88 729.177,937.773 716.85,926.54C704.523,915.307 697.857,899 696.85,877.62C696.183,864.093 697.35,852.803 700.35,843.75C702.78,836.44 707.254,829.978 713.24,825.13C719.969,819.654 727.136,814.741 734.67,810.44C742.964,805.685 752.287,803.005 761.84,802.63C777.14,801.863 789.993,805.51 800.4,813.57C810.807,821.63 816.473,835.143 817.4,854.11C817.51,856.45 817.5,860.02 817.4,864.8L794.7,870.14C787.647,870.96 777.413,871.707 764,872.38L733.69,873.89C735.89,889.89 741.3,901.767 749.92,909.52C758.54,917.273 769.207,920.82 781.92,920.16C787.276,919.886 792.564,918.838 797.62,917.05C802.958,915.144 808.045,912.599 812.77,909.47ZM732.11,859.1C740.537,859.427 748.95,859.38 757.35,858.96C764.717,858.587 772.44,857.827 780.52,856.68L780.33,850.07C779.757,838.557 777.24,830.26 772.78,825.18C768.32,820.1 762.497,817.74 755.31,818.1C750.687,818.209 746.208,819.735 742.48,822.47C738.902,825.235 736.253,829.028 734.89,833.34C733.343,837.92 732.417,846.507 732.11,859.1Z" style="fill:rgb(3,122,51);fill-rule:nonzero;"/>
        </g>
        <g transform="matrix(0.88063,0,0,0.882028,-43.949,-35.3271)">
            <path d="M859.26,936.85L852.46,934.52C853.007,911.853 852.287,880.583 850.3,840.71C849.4,822.71 848.567,808.807 847.8,799L845.17,763.06C844.89,757.553 844.243,753.937 843.23,752.21C842.414,750.956 841.106,750.102 839.63,749.86C838.4,749.55 832.92,749.45 823.16,749.56L822.66,739.48C827.78,739.233 835.867,737.733 846.92,734.98C857.973,732.227 866.237,729.543 871.71,726.93L877.71,724.25C879.47,724.16 880.41,725.25 880.53,727.47L880.84,742.19C880.9,747.23 881.9,773.693 883.84,821.58L900.07,806.58C905.157,801.833 909.787,798.61 913.96,796.91C918.826,795.063 923.968,794.049 929.17,793.91C944.843,793.13 957.663,797.5 967.63,807.02C977.597,816.54 982.983,829.377 983.79,845.53C984.145,853.875 983.238,862.226 981.1,870.3C978.907,878.887 976.01,885.96 972.41,891.52C968.574,897.34 963.719,902.422 958.08,906.52C950.58,911.853 944.23,916.71 939.03,921.09C932.83,926.27 927.577,929.713 923.27,931.42C918.138,933.3 912.734,934.33 907.27,934.47C901.358,934.811 895.428,934.303 889.66,932.96C883.093,931.21 876.785,928.6 870.9,925.2C868.78,926.98 864.9,930.863 859.26,936.85ZM884.58,836.27L887.79,900.49C891.155,905.167 895.62,908.945 900.79,911.49C906.012,913.906 911.759,914.969 917.5,914.58C927.5,914.08 935.37,909.69 941.11,901.41C946.85,893.13 949.323,880.873 948.53,864.64C947.77,849.34 944.047,837.953 937.36,830.48C930.673,823.007 922.257,819.513 912.11,820C906.819,820.234 901.666,821.77 897.11,824.47C892.172,827.507 887.908,831.523 884.58,836.27Z" style="fill:rgb(3,122,51);fill-rule:nonzero;"/>
        </g>
        <g transform="matrix(0.88063,0,0,0.882028,-43.949,-35.3271)">
            <path d="M1000.28,813.1L999.74,802.32C1013.85,800.357 1027.74,796.987 1041.18,792.26L1054.79,786.67C1056.47,786.59 1057.36,787.623 1057.47,789.77L1057.32,798.06C1056.81,819.62 1057.05,840.393 1058.05,860.38C1058.72,873.267 1059.8,881.807 1061.29,886C1062.63,889.953 1065.3,893.32 1068.85,895.52C1072.37,897.68 1076.98,898.62 1082.67,898.34C1088.92,898.15 1094.94,895.923 1099.81,892C1104.62,888.107 1107.5,883.937 1108.45,879.49C1109.4,875.043 1109.36,862.493 1108.32,841.84C1107.5,825.307 1106.74,815.64 1106.03,812.84C1105.76,811.596 1105,810.513 1103.92,809.84C1102.49,809.173 1096.12,808.84 1084.79,808.84L1084.26,798.06C1103.23,794.967 1117.11,791.75 1125.9,788.41L1140.43,782.35C1142.01,782.28 1142.85,783.22 1142.95,785.18L1142.87,788.98C1142.2,805.32 1142.93,834.853 1145.04,877.58C1145.71,890.673 1146.49,898.883 1147.38,902.21C1147.75,903.551 1148.6,904.711 1149.77,905.47C1151.3,906.23 1157.18,906.73 1167.41,906.97L1167.98,918.45C1157.28,918.45 1146.68,918.697 1136.19,919.19C1127.65,919.617 1119.73,920.283 1112.42,921.19L1111.04,918.74C1111.22,914.073 1111.22,906.74 1111.04,896.74C1102.55,904.354 1094.53,912.487 1087.04,921.09C1081.02,924.184 1074.42,925.993 1067.67,926.4C1059.08,926.827 1051.53,925.473 1045.02,922.34C1038.96,919.601 1033.83,915.143 1030.28,909.52C1026.95,904.12 1025.04,896.373 1024.56,886.28L1024.08,871C1023.89,861.553 1023.65,853.887 1023.35,848C1022.52,831.38 1021.69,821.45 1020.88,818.21C1020.5,816.358 1019.35,814.753 1017.72,813.8C1016.17,813.02 1010.36,812.787 1000.28,813.1Z" style="fill:rgb(3,122,51);fill-rule:nonzero;"/>
        </g>
        <g transform="matrix(0.88063,0,0,0.882028,-43.949,-35.3271)">
            <path d="M1281.37,826.84L1269.9,827.41C1268.69,816.343 1267.57,810.01 1266.56,808.41C1265.23,805.857 1262.37,803.613 1257.99,801.68C1253.61,799.747 1248.2,798.943 1241.77,799.27C1231.86,799.763 1224.77,802.953 1220.52,808.84C1216.27,814.727 1214.51,825.013 1215.24,839.7C1216.17,858.32 1221.14,872.493 1230.13,882.22C1239.12,891.947 1250.3,896.477 1263.65,895.81C1268.14,895.62 1272.59,894.973 1276.95,893.88C1280.77,892.917 1284.46,891.504 1287.95,889.67L1290.46,892.67C1288.64,897.23 1286.97,901.827 1285.46,906.46C1279.61,909.753 1273.41,912.376 1266.98,914.28C1260.7,916.115 1254.23,917.209 1247.7,917.54C1227.31,918.513 1211.17,913.667 1199.26,903C1187.35,892.333 1180.89,876.627 1179.86,855.88C1179.44,848.887 1179.84,841.869 1181.06,834.97C1182.02,829.357 1183.8,823.917 1186.36,818.83C1188.4,814.767 1191.08,811.054 1194.29,807.83C1196.08,806.243 1203.84,800.66 1217.59,791.08C1225.63,785.44 1231.51,781.917 1235.22,780.51C1238.93,779.103 1243.96,778.243 1250.31,777.93C1255.79,777.649 1261.29,777.796 1266.75,778.37C1272.06,778.941 1277.32,779.944 1282.47,781.37L1284.97,783.77C1282.52,797.994 1281.31,812.406 1281.37,826.84Z" style="fill:rgb(3,122,51);fill-rule:nonzero;"/>
        </g>
        <g transform="matrix(0.88063,0,0,0.882028,-43.949,-35.3271)">
            <path d="M1309.31,911.43L1308.73,899.96C1318.78,898.9 1324.53,897.9 1325.98,896.96C1326.92,896.326 1327.62,895.402 1327.98,894.33C1328.8,891.95 1328.89,883.377 1328.24,868.61L1325.94,817.02C1324.61,789.64 1323.08,764.707 1321.37,742.22C1320.76,733.727 1319.67,728.793 1318.1,727.42C1316.53,726.047 1310.53,725.48 1300.1,725.72L1299.6,715.65C1305.3,715.363 1313.48,713.877 1324.13,711.19C1334.78,708.503 1343.45,705.593 1350.13,702.46C1351.66,701.599 1353.27,700.908 1354.95,700.4C1356.35,700.33 1357.09,701.18 1357.18,702.95L1357.23,703.95C1357.07,707.409 1357.1,710.875 1357.33,714.33L1358.59,759.33C1358.95,770.263 1359.53,782.86 1360.34,797.12L1378,780.53C1381.74,777.07 1384.57,774.917 1386.5,774.07C1391.93,771.734 1397.76,770.445 1403.67,770.27C1418.29,769.537 1429.29,772.643 1436.67,779.59C1444.05,786.537 1448.07,797.91 1448.74,813.71L1450.95,869.28C1451.45,879.193 1452.12,885.297 1452.95,887.59C1453.6,889.085 1454.84,890.245 1456.38,890.79C1458.14,891.55 1463.38,891.883 1472.11,891.79L1472.68,903.26C1461.18,903.26 1450.95,903.49 1441.99,903.95C1433.6,904.37 1424.98,905.08 1416.15,906.08L1414.21,903.79C1415.17,885.964 1415.22,868.1 1414.34,850.27C1413.15,826.357 1411.01,811.623 1407.93,806.07C1403.84,799.063 1396.95,795.803 1387.24,796.29C1381.83,796.462 1376.57,798.138 1372.05,801.13C1367.71,804.063 1364.77,807.42 1363.23,811.2C1361.69,814.98 1361.17,821.98 1361.68,832.2L1364.39,875.2C1364.97,884.933 1365.73,890.71 1366.66,892.53C1367.18,893.454 1368.01,894.164 1369,894.53C1371.1,895.463 1377.2,895.957 1387.31,896.01L1387.88,907.48C1377.13,907.48 1365.88,907.763 1354.12,908.33C1337.09,909.203 1322.15,910.237 1309.31,911.43Z" style="fill:rgb(3,122,51);fill-rule:nonzero;"/>
        </g>
    </g>
    <g id="beta">
    </g>
</svg>
